<mxfile host="app.diagrams.net" modified="2023-03-20T17:31:07.624Z" agent="5.0 (Windows NT 10.0; Win64; x64) AppleWebKit/537.36 (KHTML, like Gecko) Chrome/110.0.0.0 Safari/537.36 OPR/96.0.0.0" etag="e41ycfg1TLoMzJ4t9cQI" version="21.0.8" type="github">
  <diagram name="Pagina-1" id="pP5O9-Vn6jU2Yyn2IXPv">
    <mxGraphModel dx="1393" dy="804" grid="1" gridSize="10" guides="1" tooltips="1" connect="1" arrows="1" fold="1" page="1" pageScale="1" pageWidth="2339" pageHeight="3300" math="0" shadow="0">
      <root>
        <mxCell id="0" />
        <mxCell id="1" parent="0" />
        <mxCell id="MMRJ5zJ487f8TT8b_37T-1" value="INIZIO" style="ellipse;whiteSpace=wrap;html=1;" parent="1" vertex="1">
          <mxGeometry x="1130" y="50" width="84" height="70" as="geometry" />
        </mxCell>
        <mxCell id="MMRJ5zJ487f8TT8b_37T-11" value="" style="edgeStyle=orthogonalEdgeStyle;rounded=0;orthogonalLoop=1;jettySize=auto;html=1;" parent="1" source="MMRJ5zJ487f8TT8b_37T-2" target="MMRJ5zJ487f8TT8b_37T-10" edge="1">
          <mxGeometry relative="1" as="geometry" />
        </mxCell>
        <mxCell id="MMRJ5zJ487f8TT8b_37T-15" value="" style="edgeStyle=orthogonalEdgeStyle;rounded=0;orthogonalLoop=1;jettySize=auto;html=1;" parent="1" source="MMRJ5zJ487f8TT8b_37T-2" target="MMRJ5zJ487f8TT8b_37T-14" edge="1">
          <mxGeometry relative="1" as="geometry" />
        </mxCell>
        <mxCell id="MMRJ5zJ487f8TT8b_37T-2" value="scrivere la parola da indovinare" style="shape=parallelogram;perimeter=parallelogramPerimeter;whiteSpace=wrap;html=1;fixedSize=1;" parent="1" vertex="1">
          <mxGeometry x="1100" y="150" width="140" height="60" as="geometry" />
        </mxCell>
        <mxCell id="MMRJ5zJ487f8TT8b_37T-8" value="" style="endArrow=classic;html=1;rounded=0;entryX=0.512;entryY=0.015;entryDx=0;entryDy=0;entryPerimeter=0;" parent="1" target="MMRJ5zJ487f8TT8b_37T-2" edge="1">
          <mxGeometry width="50" height="50" relative="1" as="geometry">
            <mxPoint x="1171.9" y="120" as="sourcePoint" />
            <mxPoint x="1171.9" y="170" as="targetPoint" />
          </mxGeometry>
        </mxCell>
        <mxCell id="MMRJ5zJ487f8TT8b_37T-9" value="" style="endArrow=classic;html=1;rounded=0;exitX=0.5;exitY=1;exitDx=0;exitDy=0;" parent="1" source="MMRJ5zJ487f8TT8b_37T-2" edge="1">
          <mxGeometry width="50" height="50" relative="1" as="geometry">
            <mxPoint x="1190" y="200" as="sourcePoint" />
            <mxPoint x="1170" y="240" as="targetPoint" />
            <Array as="points" />
          </mxGeometry>
        </mxCell>
        <mxCell id="MMRJ5zJ487f8TT8b_37T-10" value="parola:input(&quot; &quot;)" style="shape=parallelogram;perimeter=parallelogramPerimeter;whiteSpace=wrap;html=1;fixedSize=1;" parent="1" vertex="1">
          <mxGeometry x="1330" y="150" width="120" height="60" as="geometry" />
        </mxCell>
        <mxCell id="MMRJ5zJ487f8TT8b_37T-14" value="tentativi=6" style="shape=parallelogram;perimeter=parallelogramPerimeter;whiteSpace=wrap;html=1;fixedSize=1;" parent="1" vertex="1">
          <mxGeometry x="890" y="150" width="120" height="60" as="geometry" />
        </mxCell>
        <mxCell id="MMRJ5zJ487f8TT8b_37T-18" value="" style="edgeStyle=orthogonalEdgeStyle;rounded=0;orthogonalLoop=1;jettySize=auto;html=1;" parent="1" edge="1">
          <mxGeometry relative="1" as="geometry">
            <mxPoint x="1249" y="404.67" as="sourcePoint" />
            <mxPoint x="1349" y="404.67" as="targetPoint" />
          </mxGeometry>
        </mxCell>
        <mxCell id="MMRJ5zJ487f8TT8b_37T-17" value="parola_da_mostrare += lettera" style="whiteSpace=wrap;html=1;" parent="1" vertex="1">
          <mxGeometry x="1348" y="375" width="120" height="60" as="geometry" />
        </mxCell>
        <mxCell id="MMRJ5zJ487f8TT8b_37T-21" value="" style="edgeStyle=orthogonalEdgeStyle;rounded=0;orthogonalLoop=1;jettySize=auto;html=1;" parent="1" source="MMRJ5zJ487f8TT8b_37T-19" target="MMRJ5zJ487f8TT8b_37T-20" edge="1">
          <mxGeometry relative="1" as="geometry" />
        </mxCell>
        <mxCell id="MMRJ5zJ487f8TT8b_37T-35" style="edgeStyle=orthogonalEdgeStyle;rounded=0;orthogonalLoop=1;jettySize=auto;html=1;exitX=0.5;exitY=1;exitDx=0;exitDy=0;entryX=0.5;entryY=0;entryDx=0;entryDy=0;" parent="1" source="MMRJ5zJ487f8TT8b_37T-19" target="MMRJ5zJ487f8TT8b_37T-34" edge="1">
          <mxGeometry relative="1" as="geometry" />
        </mxCell>
        <mxCell id="MMRJ5zJ487f8TT8b_37T-19" value="&amp;nbsp; &amp;nbsp;if lettera in lettere_indovinate:" style="rhombus;whiteSpace=wrap;html=1;" parent="1" vertex="1">
          <mxGeometry x="1091" y="360" width="158" height="90" as="geometry" />
        </mxCell>
        <mxCell id="MMRJ5zJ487f8TT8b_37T-45" style="edgeStyle=orthogonalEdgeStyle;rounded=0;orthogonalLoop=1;jettySize=auto;html=1;exitX=0;exitY=0.5;exitDx=0;exitDy=0;" parent="1" source="MMRJ5zJ487f8TT8b_37T-20" edge="1">
          <mxGeometry relative="1" as="geometry">
            <mxPoint x="840" y="220" as="targetPoint" />
          </mxGeometry>
        </mxCell>
        <mxCell id="MMRJ5zJ487f8TT8b_37T-20" value="parola_da_mostrare += &quot;_&quot;" style="whiteSpace=wrap;html=1;" parent="1" vertex="1">
          <mxGeometry x="872" y="375" width="120" height="60" as="geometry" />
        </mxCell>
        <mxCell id="MMRJ5zJ487f8TT8b_37T-24" value="V" style="text;html=1;align=center;verticalAlign=middle;resizable=0;points=[];autosize=1;strokeColor=none;fillColor=none;" parent="1" vertex="1">
          <mxGeometry x="1240" y="360" width="30" height="30" as="geometry" />
        </mxCell>
        <mxCell id="MMRJ5zJ487f8TT8b_37T-25" value="F" style="text;html=1;align=center;verticalAlign=middle;resizable=0;points=[];autosize=1;strokeColor=none;fillColor=none;" parent="1" vertex="1">
          <mxGeometry x="1078" y="370" width="30" height="30" as="geometry" />
        </mxCell>
        <mxCell id="MMRJ5zJ487f8TT8b_37T-29" style="edgeStyle=orthogonalEdgeStyle;rounded=0;orthogonalLoop=1;jettySize=auto;html=1;exitX=0.5;exitY=1;exitDx=0;exitDy=0;entryX=0.5;entryY=0;entryDx=0;entryDy=0;" parent="1" source="MMRJ5zJ487f8TT8b_37T-26" target="MMRJ5zJ487f8TT8b_37T-19" edge="1">
          <mxGeometry relative="1" as="geometry" />
        </mxCell>
        <mxCell id="MMRJ5zJ487f8TT8b_37T-31" value="" style="edgeStyle=orthogonalEdgeStyle;rounded=0;orthogonalLoop=1;jettySize=auto;html=1;" parent="1" source="MMRJ5zJ487f8TT8b_37T-26" edge="1">
          <mxGeometry relative="1" as="geometry">
            <mxPoint x="1430" y="290" as="targetPoint" />
          </mxGeometry>
        </mxCell>
        <mxCell id="MMRJ5zJ487f8TT8b_37T-26" value="&lt;div&gt;while not indovinato and tentativi &amp;gt; 0:&lt;/div&gt;&lt;div&gt;&amp;nbsp; &amp;nbsp; parola_da_mostrare = &quot;&quot;&lt;/div&gt;&lt;div&gt;&amp;nbsp; &amp;nbsp; for lettera in parola:&lt;/div&gt;" style="rhombus;whiteSpace=wrap;html=1;" parent="1" vertex="1">
          <mxGeometry x="1000" y="240" width="340" height="100" as="geometry" />
        </mxCell>
        <mxCell id="MMRJ5zJ487f8TT8b_37T-30" value="&lt;div&gt;print(parola_da_mostrare)&lt;/div&gt;&lt;div&gt;&amp;nbsp; &amp;nbsp; lettera_utente = input(&quot;Indovina una lettera: &quot;).lower() lettera_già_indovinata = False&lt;/div&gt;" style="whiteSpace=wrap;html=1;" parent="1" vertex="1">
          <mxGeometry x="1430" y="255" width="170" height="70" as="geometry" />
        </mxCell>
        <mxCell id="MMRJ5zJ487f8TT8b_37T-37" value="" style="edgeStyle=orthogonalEdgeStyle;rounded=0;orthogonalLoop=1;jettySize=auto;html=1;" parent="1" source="MMRJ5zJ487f8TT8b_37T-34" edge="1">
          <mxGeometry relative="1" as="geometry">
            <mxPoint x="1360" y="540" as="targetPoint" />
          </mxGeometry>
        </mxCell>
        <mxCell id="MMRJ5zJ487f8TT8b_37T-71" style="edgeStyle=orthogonalEdgeStyle;rounded=0;orthogonalLoop=1;jettySize=auto;html=1;exitX=0;exitY=0.5;exitDx=0;exitDy=0;startArrow=none;" parent="1" source="MMRJ5zJ487f8TT8b_37T-67" target="MMRJ5zJ487f8TT8b_37T-69" edge="1">
          <mxGeometry relative="1" as="geometry" />
        </mxCell>
        <mxCell id="MMRJ5zJ487f8TT8b_37T-34" value="&lt;div&gt;for lettera in lettere_indovinate:&lt;/div&gt;&lt;div&gt;&amp;nbsp; &amp;nbsp; &amp;nbsp; &amp;nbsp; if lettera == lettera_utente:&lt;/div&gt;" style="rhombus;whiteSpace=wrap;html=1;" parent="1" vertex="1">
          <mxGeometry x="1060" y="490" width="220" height="100" as="geometry" />
        </mxCell>
        <mxCell id="MMRJ5zJ487f8TT8b_37T-36" value="&lt;div&gt;print(&quot;Hai già indovinato questa lettera, prova con un&#39;altra.&quot;)&lt;/div&gt;&lt;div&gt;&amp;nbsp; &amp;nbsp; &amp;nbsp; &amp;nbsp; &amp;nbsp; &amp;nbsp; lettera_già_indovinata = True&lt;/div&gt;&lt;div&gt;&amp;nbsp; &amp;nbsp; &amp;nbsp; &amp;nbsp; &amp;nbsp; &amp;nbsp; break&lt;/div&gt;" style="whiteSpace=wrap;html=1;" parent="1" vertex="1">
          <mxGeometry x="1360" y="500" width="230" height="90" as="geometry" />
        </mxCell>
        <mxCell id="MMRJ5zJ487f8TT8b_37T-40" value="V" style="text;html=1;align=center;verticalAlign=middle;resizable=0;points=[];autosize=1;strokeColor=none;fillColor=none;" parent="1" vertex="1">
          <mxGeometry x="1265" y="505" width="30" height="30" as="geometry" />
        </mxCell>
        <mxCell id="MMRJ5zJ487f8TT8b_37T-41" value="F" style="text;html=1;align=center;verticalAlign=middle;resizable=0;points=[];autosize=1;strokeColor=none;fillColor=none;" parent="1" vertex="1">
          <mxGeometry x="1045" y="505" width="30" height="30" as="geometry" />
        </mxCell>
        <mxCell id="MMRJ5zJ487f8TT8b_37T-49" value="" style="endArrow=classic;html=1;rounded=0;" parent="1" edge="1">
          <mxGeometry width="50" height="50" relative="1" as="geometry">
            <mxPoint x="840" y="220" as="sourcePoint" />
            <mxPoint x="1170" y="220" as="targetPoint" />
          </mxGeometry>
        </mxCell>
        <mxCell id="MMRJ5zJ487f8TT8b_37T-77" value="" style="edgeStyle=orthogonalEdgeStyle;rounded=0;orthogonalLoop=1;jettySize=auto;html=1;" parent="1" source="MMRJ5zJ487f8TT8b_37T-69" edge="1">
          <mxGeometry relative="1" as="geometry">
            <mxPoint x="1150" y="630" as="targetPoint" />
          </mxGeometry>
        </mxCell>
        <mxCell id="MMRJ5zJ487f8TT8b_37T-79" value="" style="edgeStyle=orthogonalEdgeStyle;rounded=0;orthogonalLoop=1;jettySize=auto;html=1;startArrow=none;" parent="1" source="MMRJ5zJ487f8TT8b_37T-59" edge="1">
          <mxGeometry relative="1" as="geometry">
            <mxPoint x="565" y="680" as="targetPoint" />
          </mxGeometry>
        </mxCell>
        <mxCell id="MMRJ5zJ487f8TT8b_37T-69" value="&lt;div&gt;&amp;nbsp;for lettera in parola:&lt;/div&gt;&lt;div&gt;&amp;nbsp; &amp;nbsp; &amp;nbsp; &amp;nbsp; if lettera not in lettere_indovinate:&lt;/div&gt;" style="rhombus;whiteSpace=wrap;html=1;" parent="1" vertex="1">
          <mxGeometry x="750" y="590" width="310" height="80" as="geometry" />
        </mxCell>
        <mxCell id="MMRJ5zJ487f8TT8b_37T-72" value="V" style="text;html=1;align=center;verticalAlign=middle;resizable=0;points=[];autosize=1;strokeColor=none;fillColor=none;" parent="1" vertex="1">
          <mxGeometry x="1045" y="585" width="30" height="30" as="geometry" />
        </mxCell>
        <mxCell id="MMRJ5zJ487f8TT8b_37T-74" value="F" style="text;html=1;align=center;verticalAlign=middle;resizable=0;points=[];autosize=1;strokeColor=none;fillColor=none;" parent="1" vertex="1">
          <mxGeometry x="735" y="585" width="30" height="30" as="geometry" />
        </mxCell>
        <mxCell id="MMRJ5zJ487f8TT8b_37T-76" value="&lt;div&gt;parola_indovinata = False&lt;/div&gt;&lt;div&gt;&amp;nbsp; &amp;nbsp; &amp;nbsp; &amp;nbsp; &amp;nbsp; &amp;nbsp; break&lt;/div&gt;" style="whiteSpace=wrap;html=1;" parent="1" vertex="1">
          <mxGeometry x="1150" y="605" width="150" height="50" as="geometry" />
        </mxCell>
        <mxCell id="MMRJ5zJ487f8TT8b_37T-94" value="" style="edgeStyle=orthogonalEdgeStyle;rounded=0;orthogonalLoop=1;jettySize=auto;html=1;" parent="1" source="MMRJ5zJ487f8TT8b_37T-86" target="MMRJ5zJ487f8TT8b_37T-93" edge="1">
          <mxGeometry relative="1" as="geometry" />
        </mxCell>
        <mxCell id="MMRJ5zJ487f8TT8b_37T-97" value="" style="edgeStyle=orthogonalEdgeStyle;rounded=0;orthogonalLoop=1;jettySize=auto;html=1;" parent="1" source="MMRJ5zJ487f8TT8b_37T-86" edge="1">
          <mxGeometry relative="1" as="geometry">
            <mxPoint x="380" y="720" as="targetPoint" />
          </mxGeometry>
        </mxCell>
        <mxCell id="MMRJ5zJ487f8TT8b_37T-86" value="&amp;nbsp; if parola_indovinata:" style="rhombus;whiteSpace=wrap;html=1;" parent="1" vertex="1">
          <mxGeometry x="482.5" y="680" width="165" height="80" as="geometry" />
        </mxCell>
        <mxCell id="MMRJ5zJ487f8TT8b_37T-91" value="V" style="text;html=1;align=center;verticalAlign=middle;resizable=0;points=[];autosize=1;strokeColor=none;fillColor=none;" parent="1" vertex="1">
          <mxGeometry x="632.5" y="680" width="30" height="30" as="geometry" />
        </mxCell>
        <mxCell id="MMRJ5zJ487f8TT8b_37T-92" value="F" style="text;html=1;align=center;verticalAlign=middle;resizable=0;points=[];autosize=1;strokeColor=none;fillColor=none;" parent="1" vertex="1">
          <mxGeometry x="467.5" y="680" width="30" height="30" as="geometry" />
        </mxCell>
        <mxCell id="MMRJ5zJ487f8TT8b_37T-93" value="&amp;nbsp; &amp;nbsp; print(&quot;Complimenti, hai indovinato la parola:&quot;, parola)" style="whiteSpace=wrap;html=1;" parent="1" vertex="1">
          <mxGeometry x="750" y="690" width="120" height="60" as="geometry" />
        </mxCell>
        <mxCell id="MMRJ5zJ487f8TT8b_37T-96" value="&lt;div&gt;else:&lt;/div&gt;&lt;div&gt;&amp;nbsp; &amp;nbsp; print(&quot;Hai perso, la parola era:&quot;, parola)&lt;/div&gt;" style="whiteSpace=wrap;html=1;" parent="1" vertex="1">
          <mxGeometry x="260" y="690" width="120" height="60" as="geometry" />
        </mxCell>
        <mxCell id="MMRJ5zJ487f8TT8b_37T-98" value="" style="edgeStyle=orthogonalEdgeStyle;rounded=0;orthogonalLoop=1;jettySize=auto;html=1;endArrow=none;" parent="1" source="MMRJ5zJ487f8TT8b_37T-69" target="MMRJ5zJ487f8TT8b_37T-59" edge="1">
          <mxGeometry relative="1" as="geometry">
            <mxPoint x="750" y="630" as="sourcePoint" />
            <mxPoint x="565" y="680" as="targetPoint" />
          </mxGeometry>
        </mxCell>
        <mxCell id="MMRJ5zJ487f8TT8b_37T-59" value="&lt;div&gt;&amp;nbsp; &amp;nbsp;if not lettera_già_indovinata:&lt;/div&gt;&lt;div&gt;&amp;nbsp; &amp;nbsp; &amp;nbsp; &amp;nbsp; lettera_in_parola = False&lt;/div&gt;&lt;div&gt;&amp;nbsp; &amp;nbsp; &amp;nbsp; &amp;nbsp; for lettera in parola:&lt;/div&gt;" style="rounded=0;whiteSpace=wrap;html=1;" parent="1" vertex="1">
          <mxGeometry x="550" y="590" width="170" height="60" as="geometry" />
        </mxCell>
        <mxCell id="MMRJ5zJ487f8TT8b_37T-99" value="" style="edgeStyle=orthogonalEdgeStyle;rounded=0;orthogonalLoop=1;jettySize=auto;html=1;exitX=0;exitY=0.5;exitDx=0;exitDy=0;endArrow=none;" parent="1" source="MMRJ5zJ487f8TT8b_37T-34" target="MMRJ5zJ487f8TT8b_37T-67" edge="1">
          <mxGeometry relative="1" as="geometry">
            <mxPoint x="1060" y="540" as="sourcePoint" />
            <mxPoint x="905" y="590" as="targetPoint" />
          </mxGeometry>
        </mxCell>
        <mxCell id="MMRJ5zJ487f8TT8b_37T-67" value="&lt;div&gt;if not lettera_in_parola:&lt;/div&gt;&lt;div&gt;&amp;nbsp; &amp;nbsp; &amp;nbsp; &amp;nbsp; &amp;nbsp; &amp;nbsp; print(&quot;Spiacente, la lettera non è nella parola.&quot;)&lt;/div&gt;&lt;div&gt;&amp;nbsp; &amp;nbsp; &amp;nbsp; &amp;nbsp; &amp;nbsp; &amp;nbsp; tentativi -= 1&lt;/div&gt;&lt;div&gt;&amp;nbsp; &amp;nbsp; &amp;nbsp; &amp;nbsp; &amp;nbsp; &amp;nbsp; print(&quot;Tentativi rimanenti:&quot;,tentativi)&amp;nbsp;&lt;/div&gt;" style="whiteSpace=wrap;html=1;rounded=0;" parent="1" vertex="1">
          <mxGeometry x="794" y="490" width="230" height="75" as="geometry" />
        </mxCell>
      </root>
    </mxGraphModel>
  </diagram>
</mxfile>
